<?xml version="1.0" standalone="no"?>
<!DOCTYPE svg PUBLIC "-//W3C//DTD SVG 20010904//EN"
 "http://www.w3.org/TR/2001/REC-SVG-20010904/DTD/svg10.dtd">
<svg version="1.0" xmlns="http://www.w3.org/2000/svg"
 width="512.000000pt" height="512.000000pt" viewBox="0 0 512.000000 512.000000"
 preserveAspectRatio="xMidYMid meet">

<g transform="translate(0.000000,512.000000) scale(0.100000,-0.100000)"
fill="#000000" stroke="none">
<path d="M1145 3287 c-287 -73 -386 -388 -183 -584 72 -70 159 -106 408 -168
117 -30 191 -65 210 -100 19 -35 15 -99 -7 -137 -42 -72 -123 -102 -253 -96
-140 7 -225 71 -254 191 l-6 27 -126 0 -127 0 7 -41 c42 -260 231 -399 542
-399 222 1 388 89 462 248 23 49 27 70 27 152 0 81 -4 103 -26 150 -64 138
-141 184 -431 261 -238 62 -288 92 -288 170 0 51 37 93 101 114 70 24 211 17
260 -11 39 -23 78 -76 86 -116 l6 -28 128 0 129 0 0 24 c0 47 -40 152 -77 200
-46 59 -117 110 -186 133 -68 21 -329 28 -402 10z"/>
<path d="M2100 3055 l0 -235 130 0 130 0 0 125 0 125 255 0 255 0 0 -125 0
-125 130 0 130 0 0 235 0 235 -515 0 -515 0 0 -235z"/>
<path d="M3353 3282 c3 -4 48 -129 100 -277 206 -581 267 -755 311 -874 25
-69 46 -126 46 -128 0 -2 65 -3 143 -3 l144 0 17 43 c9 23 40 103 67 177 28
74 66 175 86 224 31 79 109 294 259 714 l44 122 -139 0 -138 0 -16 -37 c-9
-21 -42 -110 -72 -198 -31 -88 -70 -200 -88 -250 l-32 -90 -3 293 -2 292 -125
0 -125 0 0 -287 c0 -159 -4 -281 -9 -273 -4 8 -50 138 -101 288 l-93 272 -139
0 c-77 0 -137 -3 -135 -8z"/>
<path d="M1940 2670 l0 -110 675 0 675 0 0 110 0 110 -675 0 -675 0 0 -110z"/>
<path d="M2100 2260 l0 -260 515 0 515 0 0 260 0 260 -130 0 -130 0 0 -150 0
-150 -255 0 -255 0 0 150 0 150 -130 0 -130 0 0 -260z"/>
</g>
</svg>
